<svg width="175" height="92" viewBox="0 0 175 92" fill="none" xmlns="http://www.w3.org/2000/svg">
<g clip-path="url(#clip0_2017_793)">
<path d="M56.5687 37.6038C56.5687 41.2089 55.5378 44.2058 53.4761 46.5934C51.1902 49.2625 48.0078 50.5969 43.9288 50.5969C40.6345 50.5969 37.8218 49.6484 35.4912 47.7523C33.093 45.7859 31.7598 43.2457 31.4907 40.1319H28.9695V49.8944H22.3809V25.3127H28.9695V34.7241H31.5244C31.9278 31.7977 33.1267 29.4331 35.1213 27.6307C37.34 25.6171 40.2759 24.6105 43.9288 24.6105C47.9852 24.6105 51.1678 25.9565 53.4761 28.6488C55.5378 31.0602 56.5687 34.0452 56.5687 37.6036V37.6038ZM49.7781 37.6038C49.7781 35.3561 49.1843 33.5888 47.9965 32.3009C46.8982 31.1072 45.5424 30.5101 43.9286 30.5101C42.2926 30.5101 40.9368 31.0956 39.8609 32.266C38.6734 33.5539 38.0794 35.3329 38.0794 37.6038C38.0794 39.8513 38.6731 41.6189 39.8609 42.9065C40.9592 44.1005 42.315 44.6973 43.9286 44.6973C45.5646 44.6973 46.9206 44.1118 47.9965 42.9414C49.1841 41.6537 49.7781 39.8745 49.7781 37.6038ZM73.8813 31.2476H66.3513V49.8947H59.7624V25.3481H73.8813V31.2479V31.2476ZM100.708 37.6038C100.708 41.2089 99.6765 44.2058 97.6147 46.5934C95.3289 49.2625 92.1465 50.5969 88.0678 50.5969C84.0114 50.5969 80.8288 49.2506 78.5208 46.5583C76.4588 44.1469 75.4282 41.1622 75.4282 37.6038C75.4282 34.0452 76.4588 31.0605 78.5208 28.6491C80.829 25.9565 84.0114 24.6108 88.0678 24.6108C92.1241 24.6108 95.3065 25.9568 97.6147 28.6491C99.6765 31.0605 100.708 34.0455 100.708 37.6038ZM93.9168 37.6038C93.9168 35.3561 93.323 33.5888 92.1352 32.3009C91.0369 31.1072 89.6811 30.5101 88.0675 30.5101C86.4315 30.5101 85.0757 31.0956 83.9999 32.266C82.8123 33.5539 82.218 35.3329 82.218 37.6038C82.218 39.8513 82.812 41.6189 83.9999 42.9065C85.0979 44.1005 86.4537 44.6973 88.0675 44.6973C89.7035 44.6973 91.0593 44.1118 92.1352 42.9414C93.3227 41.6537 93.9168 39.8745 93.9168 37.6038Z" fill="#0F0F0F"/>
<path d="M124.878 49.8947H118.289V31.2476H110.49V49.8947H103.901V25.3481H124.878V49.8947ZM151.468 49.8947H144.409L143.132 45.6455H135.131L133.82 49.8947H126.76L135.131 25.3481H143.132L151.468 49.8947ZM141.821 40.2378L139.131 31.2479L136.442 40.2378H141.821H141.821ZM175 49.8947H166.764L159.94 39.3247V49.8947H153.351V25.3481H159.94V35.6375L167.033 25.3481H174.765L165.823 37.2176L175 49.8947Z" fill="#FF7A05"/>
<path d="M28.6002 56.4992L25.5881 63.2118H23.5802L24.4886 61.3614L21.9736 56.4989H24.1825L25.4925 59.3127L26.5636 56.4989H28.6002V56.4992ZM35.1026 63.2118H33.2282V58.1122H31.0101V63.2118H29.1357V56.4992H35.1026V63.2118ZM42.666 63.2118H40.6581L40.2947 62.0499H38.0189L37.646 63.2118H35.6378L38.0189 56.4992H40.2947L42.666 63.2118ZM39.9217 60.5708L39.1567 58.1122L38.3919 60.5708H39.9217ZM49.3595 63.2118H47.0166L45.0756 60.321V63.2118H43.2012V56.4992H45.0756V59.3129L47.0931 56.4992H49.2924L46.7488 59.7451L49.3593 63.2118H49.3595ZM56.7892 59.8504C56.7892 60.8365 56.4962 61.6559 55.9094 62.3091C55.2593 63.0388 54.3542 63.4037 53.1941 63.4037C52.0402 63.4037 51.1351 63.0357 50.4784 62.2995C49.8922 61.64 49.5987 60.8236 49.5987 59.8504C49.5987 58.8772 49.892 58.0609 50.4784 57.4017C51.1351 56.6654 52.0402 56.2971 53.1941 56.2971C54.3477 56.2971 55.253 56.6654 55.9094 57.4017C56.4959 58.0609 56.7892 58.8772 56.7892 59.8504ZM54.8577 59.8504C54.8577 59.2356 54.6887 58.7525 54.3509 58.4004C54.0386 58.0738 53.6528 57.9106 53.1941 57.9106C52.7286 57.9106 52.343 58.0705 52.0369 58.3908C51.6992 58.7429 51.5302 59.2296 51.5302 59.8504C51.5302 60.4652 51.6992 60.9484 52.0369 61.3008C52.3496 61.6271 52.7351 61.7903 53.1941 61.7903C53.6593 61.7903 54.0449 61.6304 54.3509 61.3101C54.6887 60.958 54.8577 60.4713 54.8577 59.8504ZM63.3104 61.3391C63.3104 61.864 63.1414 62.2929 62.8036 62.626C62.4083 63.0165 61.8475 63.2118 61.1209 63.2118H57.6976V56.4992H60.9393C61.7361 56.4992 62.2971 56.7167 62.6221 57.1506C62.8326 57.431 62.9377 57.7828 62.9377 58.2039C62.9377 58.5352 62.8373 58.8265 62.6364 59.0748C62.4357 59.3246 62.1885 59.4988 61.8955 59.6011C62.2524 59.7037 62.5426 59.854 62.7657 60.0528C63.1288 60.3728 63.3107 60.8019 63.3107 61.3397L63.3104 61.3391ZM61.2165 58.511C61.2165 58.3142 61.1559 58.1591 61.0346 58.0437C60.888 57.9109 60.6617 57.8437 60.3556 57.8437H59.5717V59.1399H60.3556C60.6871 59.1399 60.923 59.0664 61.0633 58.9209C61.1652 58.8184 61.2162 58.6822 61.2162 58.511H61.2165ZM61.4363 61.1568C61.4363 60.8688 61.3088 60.6733 61.0537 60.571C60.9069 60.5135 60.6999 60.4849 60.4321 60.4849H59.5717V61.8678H60.4321C60.6936 61.8678 60.8943 61.839 61.0346 61.7814C61.3025 61.6726 61.4363 61.4644 61.4363 61.1573V61.1568ZM71.0748 59.8507C71.0748 60.8368 70.7818 61.6561 70.195 62.3093C69.5449 63.039 68.6398 63.404 67.4797 63.404C66.3258 63.404 65.4207 63.036 64.764 62.2997C64.1778 61.6402 63.8843 60.8239 63.8843 59.8507C63.8843 58.8775 64.1776 58.0611 64.764 57.4019C65.4207 56.6656 66.3258 56.2974 67.4797 56.2974C68.6333 56.2974 69.5387 56.6656 70.195 57.4019C70.7815 58.0611 71.0748 58.8775 71.0748 59.8507ZM69.1433 59.8507C69.1433 59.2359 68.9743 58.7527 68.6365 58.4006C68.3242 58.074 67.9384 57.9109 67.4797 57.9109C67.0141 57.9109 66.6286 58.0707 66.3225 58.391C65.9848 58.7431 65.8158 59.2298 65.8158 59.8507C65.8158 60.4655 65.9848 60.9487 66.3225 61.301C66.6351 61.6273 67.0207 61.7905 67.4797 61.7905C67.9449 61.7905 68.3305 61.6306 68.6365 61.3104C68.9743 60.9583 69.1433 60.4715 69.1433 59.8507ZM77.2711 63.212H75.3967V60.5902C75.0652 60.6352 74.8391 60.6622 74.7177 60.6721C74.5967 60.6817 74.4053 60.6865 74.144 60.6865C73.1302 60.6865 72.4547 60.4528 72.117 59.9871C71.8939 59.6797 71.7822 59.1662 71.7822 58.4441V56.4994H73.6564V58.1735C73.6564 58.5178 73.6978 58.7515 73.7806 58.8729C73.9209 59.0763 74.2237 59.1788 74.6892 59.1788C74.7529 59.1788 74.8165 59.1755 74.8804 59.169C75.0778 59.1435 75.2501 59.1243 75.3967 59.1114V56.4994H77.2711V63.212ZM84.4998 63.212H82.6256V60.5231H80.3499V63.212H78.4755V56.4994H80.3499V58.9098H82.6256V56.4994H84.4998V63.212ZM93.4693 63.212H91.5949V56.4994H93.4693V63.212ZM91.1933 61.1568C91.1933 61.9764 90.8746 62.5525 90.2371 62.8854C89.8226 63.1029 89.2651 63.2118 88.5636 63.2118H85.7047V56.4992H87.579V59.1111H88.5636C89.2585 59.1111 89.8163 59.2202 90.2371 59.4377C90.8746 59.7706 91.1933 60.3437 91.1933 61.1568ZM89.3191 61.1568C89.3191 60.9009 89.2409 60.7198 89.0847 60.6142C88.9288 60.5084 88.6944 60.4559 88.3821 60.4559H87.5788V61.8675H88.3821C88.6881 61.8675 88.9208 61.8132 89.08 61.7044C89.2394 61.5953 89.3191 61.4132 89.3191 61.1568ZM98.69 63.212H94.6739V56.4994H98.69V58.1127H96.5481V59.0442H98.4891V60.5233H96.5481V61.5988H98.69V63.2123V63.212ZM30.159 73.6823H28.3613L27.8641 69.7834L26.7357 73.6823H25.531L24.4026 69.7834L23.9054 73.6823H22.1077L23.0832 66.9697H24.9574L26.1336 71.0701L27.3098 66.9697H29.184L30.1595 73.6823H30.159ZM37.2539 73.6823H35.246L34.8826 72.5204H32.6068L32.2338 73.6823H30.2256L32.6068 66.9697H34.8826L37.2539 73.6823ZM34.5096 71.0413L33.7445 68.5827L32.9798 71.0413H34.5096ZM42.073 68.5827H40.6005V73.6823H38.7264V68.5827H37.2536V66.9694H42.0728V68.5827H42.073ZM46.7586 73.6823H42.7425V66.9697H46.7586V68.5829H44.6166V69.5144H46.5576V70.9936H44.6166V72.0691H46.7586V73.6825V73.6823ZM53.0218 69.2121C53.0218 69.793 52.8528 70.2861 52.5148 70.6877C52.0815 71.205 51.4374 71.4641 50.5833 71.4641H49.6367V73.6825H47.7623V66.9699H50.5831C51.4371 66.9699 52.0812 67.2291 52.5145 67.7461C52.8525 68.148 53.0215 68.6377 53.0215 69.2124L53.0218 69.2121ZM51.0903 69.2121C51.0903 68.9959 51.0393 68.8277 50.9374 68.7062C50.7905 68.5349 50.5358 68.4486 50.1724 68.4486H49.6369V69.985H50.1724C50.5358 69.985 50.7905 69.8923 50.9374 69.7082C51.0393 69.5816 51.0903 69.4152 51.0903 69.2121ZM60.1262 73.6823H58.319V69.6491L55.7279 73.6823H53.8917V66.9697H55.6992V71.0029L58.2903 66.9697H60.1262V73.6823ZM67.6899 73.6823H65.682L65.3186 72.5204H63.0428L62.6698 73.6823H60.6617L63.0428 66.9697H65.3186L67.6899 73.6823ZM64.9456 71.0413L64.1806 68.5827L63.4158 71.0413H64.9456ZM74.0487 73.6823H72.1746V68.5827H70.8356V71.2285C70.8356 71.9503 70.7242 72.4929 70.5011 72.8579C70.1312 73.4646 69.4333 73.7687 68.4069 73.7687C68.2223 73.7687 68.0853 73.7639 67.9957 73.754C67.9065 73.7444 67.782 73.7204 67.6228 73.682V72.0686C67.7885 72.1135 67.9256 72.1357 68.034 72.1357C68.4228 72.1357 68.6811 72.011 68.8086 71.7612C68.9107 71.5644 68.9615 71.1994 68.9615 70.6698V66.9694H74.0484V73.682L74.0487 73.6823ZM83.018 73.6823H81.1436V66.9697H83.018V73.6823ZM80.7419 71.627C80.7419 72.4467 80.4233 73.0228 79.7858 73.3557C79.3713 73.5732 78.8137 73.682 78.1123 73.682H75.2533V66.9694H77.1277V69.5814H78.1123C78.8072 69.5814 79.365 69.6905 79.7858 69.908C80.4233 70.2409 80.7419 70.814 80.7419 71.627ZM78.8678 71.627C78.8678 71.3712 78.7896 71.1901 78.6334 71.0845C78.4775 70.9787 78.2431 70.9261 77.9307 70.9261H77.1275V72.3378H77.9307C78.2368 72.3378 78.4694 72.2835 78.6286 72.1746C78.7881 72.0655 78.8678 71.8834 78.8678 71.627Z" fill="#525252"/>
<path d="M7.7574 6.03064H98.69V20.0924H93.763V10.9792H10.6279V81.2355H93.763V71.918H98.69V86.1841H5.70068V8.9376V6.03064H7.7574Z" fill="#525252"/>
<path d="M2.64194 57.2946V89.3466H70.3483V92H0V57.2946H2.64194Z" fill="#525252"/>
<path d="M101.902 19.9832V2.65337H22.0894V0H104.544V19.9832H101.902Z" fill="#525252"/>
</g>
<defs>
<clipPath id="clip0_2017_793">
<rect width="175" height="92" fill="white"/>
</clipPath>
</defs>
</svg>
