<svg width="147" height="110" viewBox="0 0 147 110" fill="none" xmlns="http://www.w3.org/2000/svg">
<g filter="url(#filter0_d_2014_1340)">
<path fill-rule="evenodd" clip-rule="evenodd" d="M141 4C141 2.89543 140.105 2 139 2H8C6.89543 2 6 2.89543 6 4V85C6 86.1046 6.89543 87 8 87H20.6112C21.2276 87 21.8097 87.2843 22.1886 87.7705L30.9226 98.9761C31.7233 100.003 33.2767 100.003 34.0774 98.9761L42.8114 87.7705C43.1903 87.2843 43.7724 87 44.3888 87H139C140.105 87 141 86.1046 141 85V4Z" fill="white"/>
</g>
<g clip-path="url(#clip0_2014_1340)">
<path d="M54.2343 39.2982C54.2343 41.5318 53.5922 43.3886 52.3081 44.8679C50.8843 46.5215 48.9021 47.3483 46.3615 47.3483C44.3096 47.3483 42.5577 46.7606 41.1061 45.5859C39.6123 44.3676 38.7819 42.7938 38.6143 40.8646H37.044V46.9131H32.9402V31.6831H37.044V37.5141H38.6353C38.8866 35.701 39.6333 34.2359 40.8756 33.1192C42.2576 31.8717 44.0862 31.248 46.3615 31.248C48.888 31.248 50.8704 32.082 52.3081 33.75C53.5922 35.244 54.2343 37.0934 54.2343 39.2981V39.2982ZM50.0047 39.2982C50.0047 37.9056 49.6349 36.8107 48.8951 36.0127C48.211 35.2731 47.3665 34.9032 46.3613 34.9032C45.3424 34.9032 44.4979 35.2659 43.8278 35.9911C43.0881 36.7891 42.7181 37.8912 42.7181 39.2982C42.7181 40.6907 43.0879 41.7858 43.8278 42.5836C44.5118 43.3233 45.3563 43.6931 46.3613 43.6931C47.3803 43.6931 48.2249 43.3304 48.8951 42.6052C49.6348 41.8074 50.0047 40.7051 50.0047 39.2982ZM65.0176 35.3602H60.3275V46.9132H56.2235V31.705H65.0176V35.3603V35.3602ZM81.7265 39.2982C81.7265 41.5318 81.0843 43.3886 79.8001 44.8679C78.3764 46.5215 76.3942 47.3483 73.8537 47.3483C71.3272 47.3483 69.3449 46.5142 67.9074 44.8461C66.623 43.3521 65.9811 41.5029 65.9811 39.2982C65.9811 37.0934 66.623 35.2442 67.9074 33.7502C69.345 32.082 71.3272 31.2482 73.8537 31.2482C76.3803 31.2482 78.3624 32.0821 79.8001 33.7502C81.0843 35.2442 81.7265 37.0936 81.7265 39.2982ZM77.4968 39.2982C77.4968 37.9056 77.127 36.8107 76.3872 36.0127C75.7031 35.2731 74.8586 34.9032 73.8536 34.9032C72.8346 34.9032 71.9901 35.2659 71.32 35.9911C70.5803 36.7891 70.2102 37.8912 70.2102 39.2982C70.2102 40.6907 70.5802 41.7858 71.32 42.5836C72.0039 43.3233 72.8484 43.6931 73.8536 43.6931C74.8726 43.6931 75.717 43.3304 76.3872 42.6052C77.1268 41.8074 77.4968 40.7051 77.4968 39.2982Z" fill="#0F0F0F"/>
<path d="M96.7809 46.9133H92.677V35.3602H87.8193V46.9133H83.7153V31.7051H96.7809V46.9133ZM113.343 46.9133H108.946L108.15 44.2807H103.167L102.35 46.9133H97.9532L103.167 31.7051H108.15L113.343 46.9133ZM107.334 40.9302L105.659 35.3604L103.984 40.9302H107.334H107.334ZM128 46.9133H122.87L118.62 40.3645V46.9133H114.516V31.7051H118.62V38.08L123.038 31.7051H127.853L122.284 39.059L128 46.9133Z" fill="#FF7A05"/>
<path d="M36.8137 51.0051L34.9376 55.164H33.6869L34.2527 54.0175L32.6863 51.0049H34.0621L34.8781 52.7482L35.5452 51.0049H36.8137V51.0051ZM40.8638 55.164H39.6963V52.0044H38.3147V55.164H37.1472V51.0051H40.8638V55.164ZM45.5747 55.164H44.324L44.0977 54.4441H42.6802L42.4479 55.164H41.1971L42.6802 51.0051H44.0977L45.5747 55.164ZM43.8654 53.5277L43.3889 52.0044L42.9125 53.5277H43.8654ZM49.7438 55.164H48.2845L47.0755 53.3729V55.164H45.908V51.0051H47.0755V52.7484L48.3321 51.0051H49.702L48.1177 53.0161L49.7436 55.164H49.7438ZM54.3714 53.0814C54.3714 53.6923 54.1889 54.2 53.8234 54.6047C53.4185 55.0568 52.8548 55.2829 52.1322 55.2829C51.4135 55.2829 50.8497 55.0549 50.4407 54.5987C50.0756 54.1901 49.8928 53.6844 49.8928 53.0814C49.8928 52.4784 50.0754 51.9727 50.4407 51.5642C50.8497 51.108 51.4135 50.8799 52.1322 50.8799C52.8507 50.8799 53.4146 51.108 53.8234 51.5642C54.1887 51.9727 54.3714 52.4784 54.3714 53.0814ZM53.1684 53.0814C53.1684 52.7005 53.0631 52.4011 52.8527 52.183C52.6582 51.9806 52.4179 51.8795 52.1322 51.8795C51.8422 51.8795 51.6021 51.9786 51.4114 52.177C51.2011 52.3952 51.0958 52.6967 51.0958 53.0814C51.0958 53.4623 51.2011 53.7617 51.4114 53.98C51.6061 54.1821 51.8463 54.2832 52.1322 54.2832C52.4219 54.2832 52.6621 54.1842 52.8527 53.9858C53.0631 53.7676 53.1684 53.466 53.1684 53.0814ZM58.4332 54.0037C58.4332 54.3289 58.3279 54.5947 58.1175 54.8011C57.8713 55.043 57.522 55.164 57.0694 55.164H54.9372V51.0051H56.9563C57.4526 51.0051 57.8021 51.1398 58.0044 51.4087C58.1356 51.5824 58.201 51.8004 58.201 52.0612C58.201 52.2665 58.1385 52.447 58.0134 52.6008C57.8884 52.7556 57.7344 52.8636 57.5519 52.9269C57.7742 52.9905 57.9549 53.0836 58.0939 53.2067C58.3201 53.405 58.4333 53.6709 58.4333 54.0041L58.4332 54.0037ZM57.129 52.2515C57.129 52.1296 57.0912 52.0335 57.0157 51.962C56.9244 51.8797 56.7834 51.8381 56.5928 51.8381H56.1045V52.6412H56.5928C56.7992 52.6412 56.9462 52.5956 57.0336 52.5055C57.097 52.442 57.1288 52.3576 57.1288 52.2515H57.129ZM57.2659 53.8908C57.2659 53.7124 57.1864 53.5912 57.0276 53.5279C56.9361 53.4922 56.8072 53.4745 56.6404 53.4745H56.1045V54.3313H56.6404C56.8033 54.3313 56.9283 54.3134 57.0157 54.2778C57.1825 54.2103 57.2659 54.0814 57.2659 53.8911V53.8908ZM63.2693 53.0815C63.2693 53.6925 63.0868 54.2001 62.7213 54.6048C62.3164 55.0569 61.7526 55.2831 61.03 55.2831C60.3113 55.2831 59.7476 55.0551 59.3386 54.5989C58.9734 54.1903 58.7906 53.6845 58.7906 53.0815C58.7906 52.4786 58.9733 51.9728 59.3386 51.5644C59.7476 51.1082 60.3113 50.88 61.03 50.88C61.7486 50.88 62.3125 51.1082 62.7213 51.5644C63.0866 51.9728 63.2693 52.4786 63.2693 53.0815ZM62.0662 53.0815C62.0662 52.7007 61.961 52.4013 61.7506 52.1831C61.556 51.9808 61.3158 51.8797 61.03 51.8797C60.7401 51.8797 60.5 51.9788 60.3093 52.1772C60.0989 52.3953 59.9937 52.6969 59.9937 53.0815C59.9937 53.4624 60.0989 53.7618 60.3093 53.9801C60.504 54.1823 60.7442 54.2834 61.03 54.2834C61.3198 54.2834 61.56 54.1843 61.7506 53.9859C61.961 53.7678 62.0662 53.4662 62.0662 53.0815ZM67.1287 55.1641H65.9612V53.5398C65.7548 53.5676 65.6139 53.5844 65.5383 53.5905C65.4629 53.5964 65.3437 53.5994 65.181 53.5994C64.5495 53.5994 64.1288 53.4546 63.9184 53.1661C63.7795 52.9756 63.7099 52.6575 63.7099 52.2101V51.0052H64.8772V52.0424C64.8772 52.2557 64.9031 52.4005 64.9546 52.4758C65.042 52.6017 65.2306 52.6653 65.5206 52.6653C65.5602 52.6653 65.5998 52.6632 65.6396 52.6592C65.7626 52.6434 65.8699 52.6315 65.9612 52.6235V51.0052H67.1287V55.1641ZM71.6311 55.1641H70.4638V53.4981H69.0463V55.1641H67.8789V51.0052H69.0463V52.4986H70.4638V51.0052H71.6311V55.1641ZM77.2179 55.1641H76.0504V51.0052H77.2179V55.1641ZM75.8002 53.8908C75.8002 54.3986 75.6018 54.7555 75.2047 54.9618C74.9465 55.0965 74.5992 55.164 74.1623 55.164H72.3816V51.0051H73.5491V52.6233H74.1623C74.5952 52.6233 74.9426 52.6909 75.2047 52.8257C75.6018 53.0319 75.8002 53.387 75.8002 53.8908ZM74.6329 53.8908C74.6329 53.7322 74.5842 53.62 74.4869 53.5546C74.3898 53.489 74.2438 53.4565 74.0492 53.4565H73.5489V54.3311H74.0492C74.2399 54.3311 74.3848 54.2975 74.4839 54.23C74.5832 54.1624 74.6329 54.0496 74.6329 53.8908ZM80.4696 55.1641H77.9682V51.0052H80.4696V52.0047H79.1355V52.5819H80.3445V53.4983H79.1355V54.1646H80.4696V55.1643V55.1641ZM37.7846 61.6511H36.6649L36.3552 59.2355L35.6523 61.6511H34.902L34.1992 59.2355L33.8895 61.6511H32.7698L33.3774 57.4922H34.5447L35.2773 60.0327L36.01 57.4922H37.1773L37.7849 61.6511H37.7846ZM42.2037 61.6511H40.953L40.7267 60.9313H39.3092L39.0769 61.6511H37.8261L39.3092 57.4922H40.7267L42.2037 61.6511ZM40.4944 60.0149L40.0179 58.4916L39.5415 60.0149H40.4944ZM45.2053 58.4916H44.2882V61.6511H43.1209V58.4916H42.2035V57.4921H45.2052V58.4916H45.2053ZM48.1238 61.6511H45.6223V57.4922H48.1238V58.4917H46.7896V59.0689H47.9986V59.9853H46.7896V60.6516H48.1238V61.6513V61.6511ZM52.0248 58.8816C52.0248 59.2415 51.9196 59.547 51.7091 59.7958C51.4392 60.1163 51.038 60.2768 50.506 60.2768H49.9164V61.6513H48.7489V57.4924H50.5059C51.0378 57.4924 51.439 57.653 51.7089 57.9733C51.9194 58.2223 52.0247 58.5257 52.0247 58.8817L52.0248 58.8816ZM50.8218 58.8816C50.8218 58.7476 50.79 58.6434 50.7266 58.5681C50.6351 58.462 50.4764 58.4085 50.2501 58.4085H49.9166V59.3604H50.2501C50.4764 59.3604 50.6351 59.303 50.7266 59.1889C50.79 59.1105 50.8218 59.0074 50.8218 58.8816ZM56.4499 61.6511H55.3243V59.1523L53.7103 61.6511H52.5667V57.4922H53.6925V59.9911L55.3064 57.4922H56.4499V61.6511ZM61.161 61.6511H59.9103L59.684 60.9313H58.2665L58.0342 61.6511H56.7834L58.2665 57.4922H59.684L61.161 61.6511ZM59.4517 60.0149L58.9752 58.4916L58.4988 60.0149H59.4517ZM65.1216 61.6511H63.9543V58.4916H63.1203V60.1308C63.1203 60.5781 63.0509 60.9142 62.912 61.1403C62.6815 61.5162 62.2469 61.7047 61.6076 61.7047C61.4926 61.7047 61.4072 61.7017 61.3515 61.6956C61.2959 61.6896 61.2183 61.6748 61.1192 61.651V60.6513C61.2224 60.6792 61.3078 60.6929 61.3753 60.6929C61.6175 60.6929 61.7783 60.6156 61.8577 60.4609C61.9213 60.339 61.953 60.1128 61.953 59.7847V57.4921H65.1214V61.651L65.1216 61.6511ZM70.7082 61.6511H69.5407V57.4922H70.7082V61.6511ZM69.2905 60.3778C69.2905 60.8856 69.0921 61.2425 68.695 61.4488C68.4368 61.5835 68.0895 61.651 67.6527 61.651H65.8719V57.4921H67.0394V59.1104H67.6527C68.0855 59.1104 68.4329 59.178 68.695 59.3127C69.0921 59.5189 69.2905 59.874 69.2905 60.3778ZM68.1232 60.3778C68.1232 60.2192 68.0745 60.107 67.9772 60.0416C67.8801 59.9761 67.7341 59.9435 67.5396 59.9435H67.0392V60.8181H67.5396C67.7302 60.8181 67.8751 60.7845 67.9743 60.717C68.0736 60.6494 68.1232 60.5366 68.1232 60.3778Z" fill="#525252"/>
<path d="M23.8318 19.7363H80.4698V28.4485H77.401V22.8023H25.6198V66.3306H77.401V60.5579H80.4698V69.3966H22.5508V21.5374V19.7363H23.8318Z" fill="#525252"/>
<path d="M20.6456 51.4976V71.3559H62.817V72.9998H19V51.4976H20.6456Z" fill="#525252"/>
<path d="M82.4705 28.3809V17.6439H32.7585V16H84.1159V28.3809H82.4705Z" fill="#525252"/>
</g>
<defs>
<filter id="filter0_d_2014_1340" x="0" y="0" width="147" height="109.747" filterUnits="userSpaceOnUse" color-interpolation-filters="sRGB">
<feFlood flood-opacity="0" result="BackgroundImageFix"/>
<feColorMatrix in="SourceAlpha" type="matrix" values="0 0 0 0 0 0 0 0 0 0 0 0 0 0 0 0 0 0 127 0" result="hardAlpha"/>
<feOffset dy="4"/>
<feGaussianBlur stdDeviation="3"/>
<feComposite in2="hardAlpha" operator="out"/>
<feColorMatrix type="matrix" values="0 0 0 0 0 0 0 0 0 0 0 0 0 0 0 0 0 0 0.2 0"/>
<feBlend mode="normal" in2="BackgroundImageFix" result="effect1_dropShadow_2014_1340"/>
<feBlend mode="normal" in="SourceGraphic" in2="effect1_dropShadow_2014_1340" result="shape"/>
</filter>
<clipPath id="clip0_2014_1340">
<rect width="109" height="57" fill="white" transform="translate(19 16)"/>
</clipPath>
</defs>
</svg>
